<svg version="1.1" id="Layer_1" xmlns="http://www.w3.org/2000/svg" xmlns:xlink="http://www.w3.org/1999/xlink" x="0px" y="0px"
	 width="50%" viewBox="0 0 96 240" enable-background="new 0 0 96 240" xml:space="preserve">
<path fill="#000000" opacity="1.000000" stroke="none" 
	d="
M6.712074,57.226936 
	C8.217119,53.760303 9.786697,50.852062 13.028614,49.285469 
	C14.658066,48.498070 15.305840,47.025833 15.821810,45.358120 
	C16.460398,43.294083 17.046734,40.654152 18.902954,39.782417 
	C25.123569,36.861031 29.987059,32.722740 33.363979,26.702646 
	C33.915527,25.719387 35.547005,24.944252 36.762184,24.807140 
	C40.105217,24.429937 41.253887,22.678907 42.094673,19.492964 
	C43.555336,13.958191 50.423893,11.602067 55.600998,14.393860 
	C56.894733,15.091516 58.043091,16.058764 59.218967,16.874830 
	C61.178555,15.887611 61.631721,13.977664 62.586880,12.470685 
	C69.182800,2.064113 82.312881,2.092539 88.895012,12.560687 
	C93.854202,20.447729 92.300301,28.553020 89.476036,36.592892 
	C88.033623,40.699017 87.508728,44.726597 89.340027,48.740582 
	C97.005714,65.542778 94.366348,81.854362 86.927536,97.851753 
	C83.559631,105.094543 79.619507,112.069069 76.125084,119.255783 
	C72.372795,126.972824 70.248314,135.105133 70.048721,143.767258 
	C69.664383,160.447128 72.005768,176.946640 73.030373,193.532440 
	C73.641212,203.420364 75.035591,213.320267 70.603523,222.926147 
	C63.737144,237.808029 47.959248,243.264023 33.486584,235.564117 
	C21.619932,229.250687 15.211169,219.325989 13.775278,206.179504 
	C10.184481,173.303543 5.807031,140.514404 4.398318,107.408813 
	C3.936518,96.556229 3.003754,85.925194 6.331748,75.354866 
	C7.108629,72.887344 6.834464,70.083496 6.170756,67.439568 
	C5.342318,64.139420 5.366247,60.842560 6.712074,57.226936 
M32.690247,58.820675 
	C34.646526,57.902828 36.632294,57.042503 38.554096,56.057396 
	C47.983986,51.223671 57.710060,47.766624 68.583984,48.464676 
	C73.499962,48.780254 77.214722,50.139687 78.876709,53.116955 
	C78.155121,53.813374 77.295219,53.637028 76.547157,53.309532 
	C69.066864,50.034676 61.653133,51.187775 54.086552,53.192348 
	C42.335865,56.305389 32.457634,62.458725 23.589699,70.582657 
	C21.984715,72.052994 20.485006,74.597748 17.571321,73.697250 
	C17.292627,72.481865 17.885548,71.876312 18.301584,71.153648 
	C21.353666,65.852089 21.318920,60.191463 19.133629,54.787209 
	C17.577908,50.939884 15.037605,50.926544 12.351922,54.176624 
	C9.365403,57.790756 7.806347,61.662888 8.962460,66.627037 
	C9.979154,70.992546 9.592671,75.502586 8.715865,80.006363 
	C7.638659,85.539520 6.370165,91.219238 6.581563,96.782509 
	C7.073446,109.727249 8.234428,122.655769 9.429806,135.562561 
	C11.649752,159.531906 14.115179,183.472916 17.326160,207.341003 
	C19.073286,220.327866 25.666801,229.077621 37.595074,234.107834 
	C56.068050,241.897995 69.933334,225.260284 70.638428,212.784027 
	C71.468063,198.104095 69.883636,183.498260 68.139549,169.028000 
	C65.622200,148.142181 66.678955,128.256134 77.612564,109.624222 
	C81.818512,102.456879 85.703239,95.054863 88.361771,87.111168 
	C93.705208,71.145020 90.034645,56.004879 83.709312,40.658806 
	C77.909111,44.041779 71.922516,43.225815 65.726395,39.333321 
	C65.808609,43.501232 62.975426,43.696938 60.514755,44.368092 
	C58.286694,42.384888 59.426167,39.222195 58.211884,37.507629 
	C48.224766,35.091637 48.876240,43.266491 46.773327,48.469028 
	C38.513092,46.636692 35.913353,47.916672 33.763947,54.901833 
	C33.325546,56.326538 32.615993,57.667809 31.456774,58.746033 
	C24.868685,56.446705 23.644798,57.474064 23.153736,66.151207 
	C25.336058,64.587463 27.343525,63.242306 29.238298,61.753712 
	C30.254351,60.955471 31.076584,59.910526 32.690247,58.820675 
M88.813271,22.648270 
	C88.803078,19.940142 88.111000,17.393465 86.887840,15.000837 
	C82.209862,5.850228 70.755760,5.249348 65.078987,13.792358 
	C62.448711,17.750675 62.110218,22.093590 62.308922,26.656153 
	C62.530659,31.747551 66.938210,37.695198 71.914169,39.254185 
	C76.992722,40.845306 82.320351,38.721489 85.673439,33.785828 
	C87.784996,30.677654 88.901253,27.272282 88.813271,22.648270 
M45.717865,40.965126 
	C46.881310,39.032703 47.011528,36.887173 46.904648,34.728046 
	C46.655205,29.688913 42.178452,26.074984 37.875420,27.618248 
	C34.499737,28.828922 32.433750,31.416403 32.226063,35.066402 
	C31.987118,39.265770 34.417633,42.490334 37.617485,44.385574 
	C40.475246,46.078197 43.314846,44.211720 45.717865,40.965126 
M44.474720,21.846382 
	C44.764622,26.889824 48.922562,29.695990 51.416164,33.415688 
	C52.560524,35.122730 55.101624,34.821640 56.804111,33.278553 
	C59.692535,30.660561 60.373974,27.232132 59.322937,23.685364 
	C58.241890,20.037336 56.025009,16.958811 51.960770,16.347178 
	C48.351654,15.804038 46.028122,17.914074 44.474720,21.846382 
M20.081913,50.495670 
	C22.020657,53.117832 24.077005,55.595955 27.875368,54.558041 
	C31.615499,53.536041 34.152821,48.682102 32.982471,44.975224 
	C31.648729,40.750835 27.849913,38.626175 24.118189,40.017471 
	C19.857929,41.605816 18.098795,45.532005 20.081913,50.495670 
z"/>
</svg>