<svg version="1.1" id="Layer_1" xmlns="http://www.w3.org/2000/svg" xmlns:xlink="http://www.w3.org/1999/xlink" x="0px" y="0px"
  width="100%" viewBox="0 0 96 240" enable-background="new 0 0 96 240" xml:space="preserve">
<path fill="none" opacity="1.000000" stroke="#000000" stroke-linecap="round" stroke-linejoin="round" stroke-width="2.000000"
	d="
M9.500000,34.500000 
	C11.244991,42.239380 7.361882,48.898598 5.619481,56.029198 
	C2.121737,70.343353 4.989148,83.991096 11.497718,97.001144 
	C16.066586,106.133888 21.961615,114.659027 24.933786,124.519958 
	C27.725481,133.782135 28.565214,143.246460 27.614698,153.011169 
	C26.321169,166.299698 25.790920,179.664230 25.021378,193.001236 
	C24.723700,198.160339 24.634138,203.332520 24.506651,208.500168 
	C24.225754,219.886398 29.765194,227.663116 39.483322,233.030197 
	C48.680378,238.109482 57.376274,235.454514 65.429527,230.876038 
	C76.577812,224.537994 80.117577,213.478271 81.501091,201.500122 
	C83.830460,181.332993 86.524559,161.199692 88.389069,140.989761 
	C89.937408,124.206802 91.668770,107.396187 91.434151,90.500916 
	C91.378517,86.494743 90.977768,82.363075 89.880463,78.534256 
	C88.472015,73.619774 88.458527,68.973145 89.398956,63.980965 
	C90.887939,56.076839 86.797020,50.214512 79.000000,48.000000 
"/>
<path fill="none" opacity="1.000000" stroke="#000000" stroke-linecap="round" stroke-linejoin="round" stroke-width="2.000000"
	d="
M78.500000,71.500000 
	C68.009514,61.385727 56.487541,52.999397 42.002674,49.488968 
	C34.055634,47.562992 26.189651,46.790131 18.500000,50.500000 
"/>
<path fill="none" opacity="1.000000" stroke="#000000" stroke-linecap="round" stroke-linejoin="round" stroke-width="2.000000"
	d="
M36.000000,17.500000 
	C34.475246,15.014853 33.425682,12.323279 31.580790,9.937526 
	C24.625685,0.943412 11.975910,3.342436 7.477465,13.990479 
	C4.014639,22.187160 6.420625,31.718946 13.500001,37.000000 
	C17.700764,40.133671 23.202227,40.490013 27.458952,37.442661 
	C30.324436,35.391289 33.357319,33.432175 35.500000,30.500000 
"/>
<path fill="none" opacity="1.000000" stroke="#000000" stroke-linecap="round" stroke-linejoin="round" stroke-width="2.000000"
	d="
M54.000000,23.500000 
	C53.212936,19.845844 53.815811,15.641946 49.513493,13.473235 
	C44.951767,11.173764 37.222172,15.057355 36.040821,20.508846 
	C35.619381,22.453636 35.165329,24.616777 35.598640,26.477024 
	C36.684376,31.138193 36.448898,35.813175 36.500000,40.500000 
"/>
<path fill="none" opacity="1.000000" stroke="#000000" stroke-linecap="round" stroke-linejoin="round" stroke-width="2.000000"
	d="
M66.500000,36.500000 
	C66.408592,33.046410 65.509827,29.722000 63.442547,27.044355 
	C59.153362,21.488764 51.664783,23.231636 48.416542,29.959709 
	C46.089020,34.780701 48.589985,38.029011 51.011414,41.492020 
	C53.440720,44.966293 56.802933,45.182194 60.500000,44.000000 
"/>
<path fill="none" opacity="1.000000" stroke="#000000" stroke-linecap="round" stroke-linejoin="round" stroke-width="2.000000"
	d="
M75.500000,63.500000 
	C73.937401,58.253574 73.876892,53.420872 77.919319,48.927414 
	C80.302368,46.278477 79.170403,42.082890 76.551605,38.956768 
	C74.312904,36.284382 69.249573,35.320858 66.022232,37.041691 
	C62.949490,38.680084 60.638012,44.414368 61.500004,47.500000 
	C62.742149,51.946487 65.639015,54.180878 70.499123,54.512871 
	C71.671700,54.592968 72.833336,54.833336 74.000000,55.000000 
"/>
<path fill="none" opacity="1.000000" stroke="#000000" stroke-linecap="round" stroke-linejoin="round" stroke-width="2.000000"
	d="
M37.500000,31.500000 
	C40.177349,33.494873 42.852894,35.496250 46.500000,34.000000 
"/>
<path fill="none" opacity="1.000000" stroke="#000000" stroke-linecap="round" stroke-linejoin="round" stroke-width="3.000000"
	d="
M32.500000,34.500000 
	C33.995369,36.833332 32.093426,39.166668 32.500000,41.500000 
"/>
</svg>